<svg id="Layer_1" data-name="Layer 1" xmlns="http://www.w3.org/2000/svg" xmlns:xlink="http://www.w3.org/1999/xlink" viewBox="0 0 678.78 292.77">
    <defs>
        <style>.cls-1{fill:url(#linear-gradient);}.cls-2{fill:url(#linear-gradient-2);}.cls-3{fill:url(#linear-gradient-3);}.cls-4{fill:url(#linear-gradient-4);}</style>
        <linearGradient id="linear-gradient" x1="349.54" y1="5.77" x2="236.43" y2="113.31" gradientUnits="userSpaceOnUse">
            <stop offset="0" stop-color="#ffcf00" />
            <stop offset="1" stop-color="#f15a24" />
        </linearGradient>
        <linearGradient id="linear-gradient-2" x1="51.86" y1="37.41" x2="220.19" y2="103.94" gradientUnits="userSpaceOnUse">
            <stop offset="0" stop-color="#ffce00" />
            <stop offset="1" stop-color="#f15a24" />
        </linearGradient>
        <linearGradient id="linear-gradient-3" x1="182.43" y1="94.1" x2="257.78" y2="219.15" xlink:href="#linear-gradient-2" />
        <linearGradient id="linear-gradient-4" x1="97.42" y1="188.59" x2="-130.31" y2="394.83" xlink:href="#linear-gradient-2" />
    </defs>
    <path d="M326.85,136.32h34.8v10.2H338.72v6.56h20.77v9.45H338.72v6.86H362v10.2H326.85Z" />
    <path d="M383,136h11.55L413,179.59H400.16L397,171.87H380.32l-3.1,7.72h-12.6Zm10.5,26.52-4.82-12.3-4.88,12.3Z" />
    <path d="M413,158.08V158c0-12.61,9.89-22.5,23.3-22.5,7.61,0,13,2.35,17.56,6.3l-7.05,8.47a15.29,15.29,0,0,0-10.45-4.08c-6.24,0-11.06,5.26-11.06,11.87v.12c0,7,4.88,12,11.74,12a12.21,12.21,0,0,0,6.93-1.8v-5.25h-8.53v-8.78h19.9v19.47a29.25,29.25,0,0,1-18.79,6.68C423,180.46,413,171.19,413,158.08Z" />
    <path d="M462,136.32h12v32.77h21v10.5H462Z" />
    <path d="M500,136.32h34.81v10.2H511.9v6.56h20.77v9.45H511.9v6.86h23.24v10.2H500Z" />
    <path d="M326.85,191.28h20.46c6.62,0,11.19,1.74,14.1,4.7,2.53,2.48,3.83,5.81,3.83,10.08v.12c0,6.62-3.53,11-8.9,13.29l10.32,15.08H352.81l-8.71-13.1h-5.26v13.1h-12Zm19.91,20.77c4.07,0,6.42-2,6.42-5.13v-.12c0-3.4-2.47-5.13-6.49-5.13h-7.85v10.38Z" />
    <path d="M369.81,213v-.12c0-12.43,10-22.5,23.36-22.5s23.24,10,23.24,22.38v.12c0,12.42-10,22.5-23.36,22.5S369.81,225.47,369.81,213Zm34.36,0v-.12c0-6.24-4.51-11.68-11.12-11.68s-10.94,5.31-10.94,11.56v.12c0,6.24,4.51,11.68,11.06,11.68S404.17,219.29,404.17,213Z" />
    <path d="M421.17,213v-.12c0-12.61,9.7-22.5,22.81-22.5,8.84,0,14.52,3.71,18.36,9l-9,7c-2.47-3.09-5.31-5.07-9.46-5.07-6.05,0-10.32,5.13-10.32,11.44v.12c0,6.49,4.27,11.56,10.32,11.56,4.52,0,7.17-2.1,9.77-5.26l9,6.43c-4.07,5.63-9.58,9.77-19.16,9.77A22,22,0,0,1,421.17,213Z" />
    <path d="M467.77,191.28h12v17.56l14.9-17.56h14.22L492.5,209.89l16.93,24.66H495l-10.88-16.07-4.39,4.89v11.18h-12Z" />
    <path d="M512.89,191.28h34.8v10.2H524.76V208h20.77v9.45H524.76v6.86H548v10.2H512.89Z" />
    <path d="M564.68,201.79h-13V191.28h38v10.51h-13v32.76h-12Z" />
    <path d="M594.91,191.28h20.46c6.61,0,11.18,1.74,14.09,4.7,2.54,2.48,3.83,5.81,3.83,10.08v.12c0,6.62-3.52,11-8.9,13.29l10.32,15.08H620.87l-8.72-13.1H606.9v13.1h-12Zm19.9,20.77c4.08,0,6.43-2,6.43-5.13v-.12c0-3.4-2.47-5.13-6.49-5.13H606.9v10.38Z" />
    <path d="M650.29,218.36l-16.45-27.08h13.67l8.9,15.77,9-15.77h13.41l-16.44,26.89v16.38H650.29Z" />
    <path d="M323.58,283.09l6.67-8a22.3,22.3,0,0,0,14,5.19c3.22,0,5-1.11,5-3v-.13c0-1.79-1.42-2.78-7.3-4.14-9.21-2.1-16.31-4.7-16.31-13.6v-.12c0-8,6.36-13.85,16.75-13.85,7.35,0,13.1,2,17.8,5.75l-6,8.47a21.7,21.7,0,0,0-12.11-4.27c-2.91,0-4.33,1.24-4.33,2.79v.12c0,2,1.48,2.84,7.48,4.2,10,2.17,16.13,5.38,16.13,13.48v.12c0,8.84-7,14.1-17.49,14.1C336.19,290.26,328.89,287.85,323.58,283.09Z" />
    <path d="M367.15,246.24H402v10.2H379V263h20.77v9.45H379v6.86h23.24v10.2H367.15Z" />
    <path d="M408.37,246.24h16.69c15.46,0,24.42,8.91,24.42,21.39v.13c0,12.48-9.09,21.75-24.66,21.75H408.37Zm16.88,32.64c7.17,0,11.93-3.95,11.93-10.94v-.12c0-6.93-4.76-10.94-11.93-10.94h-4.88v22Z" />
    <path d="M451.76,283.09l6.68-8a22.26,22.26,0,0,0,14,5.19c3.21,0,4.94-1.11,4.94-3v-.13c0-1.79-1.42-2.78-7.29-4.14-9.21-2.1-16.32-4.7-16.32-13.6v-.12c0-8,6.37-13.85,16.75-13.85,7.36,0,13.11,2,17.81,5.75l-6,8.47a21.73,21.73,0,0,0-12.12-4.27c-2.9,0-4.32,1.24-4.32,2.79v.12c0,2,1.48,2.84,7.48,4.2,10,2.17,16.13,5.38,16.13,13.48v.12c0,8.84-7,14.1-17.49,14.1C464.37,290.26,457.08,287.85,451.76,283.09Z" />
    <path class="cls-1" d="M363.7,51.47s1.89-6.68-.17-5.63c-3,1.52-15.78-8.5-15.78-8.5-11-4.71-22.26,3.82-31.05,14.08-1.75,12.7-3,32.24-18,50.34-19.88,23.95-49,55.94-49,55.94l-69.57-48.95c27.61-27.09,80.6-78.5,92.62-88.47a.1.1,0,0,0,.05,0c.92-.7,1.87-1.41,2.84-2.12C288.13,8.93,304.21,0,325,0c.54,0,1.09,0,1.61,0,15.81.75,23.87,12,27.23,18.51a31.5,31.5,0,0,1,2,4.59C380,40.16,363.7,51.47,363.7,51.47Z" />
    <path class="cls-2" d="M118,166.16s12.42-15.14,8.44-30c-4.27-16-28.49-15.69-28.49-15.69L0,121.32,52.13,72C94.86,30.52,104,25.55,133.94,25.18l106.11-.51c21.23-.11,29.46-2.57,32.64-4.39Z" />
    <path class="cls-3" d="M268.34,50.82c.14,31.45.57,115.8.57,115.8-.1,27.94-5.33,36.6-49.22,76.93L167.4,292.77l-.1-108.11s.12-22.64-17.06-26.5c-15.54-3.48-31.46,7.39-32.29,8L272.69,20.28C270.78,23.3,268.24,31,268.34,50.82Z" />
    <path class="cls-4" d="M92.74,157.61s-36.57-11-42.22,36.94c0,0,6-3.8,8-1.6S47.31,198.24,45,209.36s-7.85,35-17.22,37.68c0,0,17,3.69,34.47-9.37s21-13.06,22.7-11.84c0,0-3.93,8.92-8,10.41,0,0,16.65,1.31,35.57-7.55s13.74-34.57,12.4-36.07c0,0-15.76,23.67-30,18.22,0,0,1.85-6.54,6.46-9.64,0,0-23.35,10.25-26,5.22s7-23.41,13-26.19C88.39,180.23,76.11,180,92.74,157.61Z" />
</svg>